<svg width="13" height="8" viewBox="0 0 13 8" fill="none" xmlns="http://www.w3.org/2000/svg">
<path d="M7.10357 2.20562L6.75003 1.8521L6.39649 2.20562L1.42682 7.17495L1.42681 7.17496C1.32918 7.27259 1.17088 7.27259 1.07325 7.17496C0.988096 7.0898 0.977023 6.95768 1.04089 6.86095L1.08621 6.80845L6.57325 1.32141C6.60596 1.2887 6.64436 1.26746 6.68508 1.25664L6.73253 1.25H6.78038C6.81841 1.25457 6.85492 1.26768 6.88726 1.28904L6.93976 1.33436L12.4268 6.82141L12.4268 6.82142C12.5244 6.91904 12.5244 7.07732 12.4268 7.17495C12.3521 7.24967 12.2408 7.26777 12.1487 7.22696L12.1013 7.19743L12.0603 7.16202L7.10357 2.20562Z" fill="#060B11"/>
<path d="M7.10357 2.20562L6.75003 1.8521L6.39649 2.20562L1.42682 7.17495L1.42681 7.17496C1.32918 7.27259 1.17088 7.27259 1.07325 7.17496C0.988096 7.0898 0.977023 6.95768 1.04089 6.86095L1.08621 6.80845L6.57325 1.32141C6.60596 1.2887 6.64436 1.26746 6.68508 1.25664L6.73253 1.25H6.78038C6.81841 1.25457 6.85492 1.26768 6.88726 1.28904L6.93976 1.33436L12.4268 6.82141L12.4268 6.82142C12.5244 6.91904 12.5244 7.07732 12.4268 7.17495C12.3521 7.24967 12.2408 7.26777 12.1487 7.22696L12.1013 7.19743L12.0603 7.16202L7.10357 2.20562Z" stroke="black"/>
<path d="M7.10357 2.20562L6.75003 1.8521L6.39649 2.20562L1.42682 7.17495L1.42681 7.17496C1.32918 7.27259 1.17088 7.27259 1.07325 7.17496C0.988096 7.0898 0.977023 6.95768 1.04089 6.86095L1.08621 6.80845L6.57325 1.32141C6.60596 1.2887 6.64436 1.26746 6.68508 1.25664L6.73253 1.25H6.78038C6.81841 1.25457 6.85492 1.26768 6.88726 1.28904L6.93976 1.33436L12.4268 6.82141L12.4268 6.82142C12.5244 6.91904 12.5244 7.07732 12.4268 7.17495C12.3521 7.24967 12.2408 7.26777 12.1487 7.22696L12.1013 7.19743L12.0603 7.16202L7.10357 2.20562Z" stroke="black" stroke-opacity="0.2"/>
</svg>
